<?xml version="1.0" encoding="UTF-8" standalone="no"?>
<!DOCTYPE svg PUBLIC "-//W3C//DTD SVG 1.1//EN"
 "http://www.w3.org/Graphics/SVG/1.1/DTD/svg11.dtd">
<!-- Generated by graphviz version 3.0.0 (0)
 -->
<!-- Title: Menu::GetText Pages: 1 -->
<svg width="385pt" height="28pt"
 viewBox="0.00 0.00 385.00 28.00" xmlns="http://www.w3.org/2000/svg" xmlns:xlink="http://www.w3.org/1999/xlink">
<g id="graph0" class="graph" transform="scale(1 1) rotate(0) translate(4 24)">
<title>Menu::GetText</title>
<polygon fill="white" stroke="transparent" points="-4,4 -4,-24 381,-24 381,4 -4,4"/>
<!-- Node1 -->
<g id="node1" class="node">
<title>Node1</title>
<g id="a_node1"><a xlink:title="Getters.">
<polygon fill="#bfbfbf" stroke="black" points="296,-0.5 296,-19.5 377,-19.5 377,-0.5 296,-0.5"/>
<text text-anchor="middle" x="336.5" y="-7.5" font-family="Helvetica,sans-Serif" font-size="10.00">Menu::GetText</text>
</a>
</g>
</g>
<!-- Node2 -->
<g id="node2" class="node">
<title>Node2</title>
<g id="a_node2"><a xlink:href="classMenuBar.html#a01078b55d58fbea2985cdf1d556c4554" target="_top" xlink:title="add Menu item to itself, stores menu items in unique pointers">
<polygon fill="white" stroke="black" points="183,-0.5 183,-19.5 260,-19.5 260,-0.5 183,-0.5"/>
<text text-anchor="middle" x="221.5" y="-7.5" font-family="Helvetica,sans-Serif" font-size="10.00">MenuBar::add</text>
</a>
</g>
</g>
<!-- Node1&#45;&gt;Node2 -->
<g id="edge1" class="edge">
<title>Node1&#45;&gt;Node2</title>
<path fill="none" stroke="midnightblue" d="M285.72,-10C277.19,-10 268.45,-10 260.29,-10"/>
<polygon fill="midnightblue" stroke="midnightblue" points="285.98,-13.5 295.98,-10 285.98,-6.5 285.98,-13.5"/>
</g>
<!-- Node3 -->
<g id="node3" class="node">
<title>Node3</title>
<g id="a_node3"><a xlink:href="menu_8cpp.html#ac39d909a51b3cb42545995ca9386b734" target="_top" xlink:title=" ">
<polygon fill="white" stroke="black" points="74,-0.5 74,-19.5 147,-19.5 147,-0.5 74,-0.5"/>
<text text-anchor="middle" x="110.5" y="-7.5" font-family="Helvetica,sans-Serif" font-size="10.00">create_menu</text>
</a>
</g>
</g>
<!-- Node2&#45;&gt;Node3 -->
<g id="edge2" class="edge">
<title>Node2&#45;&gt;Node3</title>
<path fill="none" stroke="midnightblue" d="M172.72,-10C164.17,-10 155.39,-10 147.24,-10"/>
<polygon fill="midnightblue" stroke="midnightblue" points="172.99,-13.5 182.99,-10 172.99,-6.5 172.99,-13.5"/>
</g>
<!-- Node4 -->
<g id="node4" class="node">
<title>Node4</title>
<g id="a_node4"><a xlink:href="main_8cpp.html#ae66f6b31b5ad750f1fe042a706a4e3d4" target="_top" xlink:title=" ">
<polygon fill="white" stroke="black" points="0,-0.5 0,-19.5 38,-19.5 38,-0.5 0,-0.5"/>
<text text-anchor="middle" x="19" y="-7.5" font-family="Helvetica,sans-Serif" font-size="10.00">main</text>
</a>
</g>
</g>
<!-- Node3&#45;&gt;Node4 -->
<g id="edge3" class="edge">
<title>Node3&#45;&gt;Node4</title>
<path fill="none" stroke="midnightblue" d="M63.66,-10C54.57,-10 45.53,-10 38.06,-10"/>
<polygon fill="midnightblue" stroke="midnightblue" points="63.87,-13.5 73.87,-10 63.87,-6.5 63.87,-13.5"/>
</g>
</g>
</svg>
