<?xml version="1.0" encoding="UTF-8" standalone="no"?>
<!DOCTYPE svg PUBLIC "-//W3C//DTD SVG 1.1//EN"
 "http://www.w3.org/Graphics/SVG/1.1/DTD/svg11.dtd">
<!-- Generated by graphviz version 3.0.0 (0)
 -->
<!-- Title: Menu::GetSelected Pages: 1 -->
<svg width="454pt" height="28pt"
 viewBox="0.00 0.00 454.00 28.00" xmlns="http://www.w3.org/2000/svg" xmlns:xlink="http://www.w3.org/1999/xlink">
<g id="graph0" class="graph" transform="scale(1 1) rotate(0) translate(4 24)">
<title>Menu::GetSelected</title>
<polygon fill="white" stroke="transparent" points="-4,4 -4,-24 450,-24 450,4 -4,4"/>
<!-- Node1 -->
<g id="node1" class="node">
<title>Node1</title>
<g id="a_node1"><a xlink:title=" ">
<polygon fill="#bfbfbf" stroke="black" points="345,-0.5 345,-19.5 446,-19.5 446,-0.5 345,-0.5"/>
<text text-anchor="middle" x="395.5" y="-7.5" font-family="Helvetica,sans-Serif" font-size="10.00">Menu::GetSelected</text>
</a>
</g>
</g>
<!-- Node2 -->
<g id="node2" class="node">
<title>Node2</title>
<g id="a_node2"><a xlink:href="classMenuBar.html#ab42f42a7ef6cb5a6c291eaca0aea1f0a" target="_top" xlink:title="draws options for each menu item, everytime a designed trigger key is pressed">
<polygon fill="white" stroke="black" points="193,-0.5 193,-19.5 309,-19.5 309,-0.5 193,-0.5"/>
<text text-anchor="middle" x="251" y="-7.5" font-family="Helvetica,sans-Serif" font-size="10.00">MenuBar::drawOptions</text>
</a>
</g>
</g>
<!-- Node1&#45;&gt;Node2 -->
<g id="edge1" class="edge">
<title>Node1&#45;&gt;Node2</title>
<path fill="none" stroke="midnightblue" d="M334.61,-10C326.25,-10 317.68,-10 309.38,-10"/>
<polygon fill="midnightblue" stroke="midnightblue" points="334.66,-13.5 344.66,-10 334.66,-6.5 334.66,-13.5"/>
</g>
<!-- Node3 -->
<g id="node3" class="node">
<title>Node3</title>
<g id="a_node3"><a xlink:href="classMenuBar.html#a983b009101ecde332e9c143fa90ce36e" target="_top" xlink:title="draws the menu window on the terminal and also handles pressed keys">
<polygon fill="white" stroke="black" points="74,-0.5 74,-19.5 157,-19.5 157,-0.5 74,-0.5"/>
<text text-anchor="middle" x="115.5" y="-7.5" font-family="Helvetica,sans-Serif" font-size="10.00">MenuBar::draw</text>
</a>
</g>
</g>
<!-- Node2&#45;&gt;Node3 -->
<g id="edge2" class="edge">
<title>Node2&#45;&gt;Node3</title>
<path fill="none" stroke="midnightblue" d="M182.76,-10C174.02,-10 165.29,-10 157.17,-10"/>
<polygon fill="midnightblue" stroke="midnightblue" points="183,-13.5 193,-10 183,-6.5 183,-13.5"/>
</g>
<!-- Node4 -->
<g id="node4" class="node">
<title>Node4</title>
<g id="a_node4"><a xlink:href="main_8cpp.html#ae66f6b31b5ad750f1fe042a706a4e3d4" target="_top" xlink:title=" ">
<polygon fill="white" stroke="black" points="0,-0.5 0,-19.5 38,-19.5 38,-0.5 0,-0.5"/>
<text text-anchor="middle" x="19" y="-7.5" font-family="Helvetica,sans-Serif" font-size="10.00">main</text>
</a>
</g>
</g>
<!-- Node3&#45;&gt;Node4 -->
<g id="edge3" class="edge">
<title>Node3&#45;&gt;Node4</title>
<path fill="none" stroke="midnightblue" d="M63.63,-10C54.56,-10 45.67,-10 38.3,-10"/>
<polygon fill="midnightblue" stroke="midnightblue" points="63.88,-13.5 73.88,-10 63.88,-6.5 63.88,-13.5"/>
</g>
</g>
</svg>
