<?xml version="1.0" encoding="UTF-8" standalone="no"?>
<!DOCTYPE svg PUBLIC "-//W3C//DTD SVG 1.1//EN"
 "http://www.w3.org/Graphics/SVG/1.1/DTD/svg11.dtd">
<!-- Generated by graphviz version 3.0.0 (0)
 -->
<!-- Title: src/entity.cpp Pages: 1 -->
<svg width="525pt" height="140pt"
 viewBox="0.00 0.00 524.50 140.00" xmlns="http://www.w3.org/2000/svg" xmlns:xlink="http://www.w3.org/1999/xlink">
<g id="graph0" class="graph" transform="scale(1 1) rotate(0) translate(4 136)">
<title>src/entity.cpp</title>
<polygon fill="white" stroke="transparent" points="-4,4 -4,-136 520.5,-136 520.5,4 -4,4"/>
<!-- Node1 -->
<g id="node1" class="node">
<title>Node1</title>
<g id="a_node1"><a xlink:title=" ">
<polygon fill="#bfbfbf" stroke="black" points="239,-112.5 239,-131.5 313,-131.5 313,-112.5 239,-112.5"/>
<text text-anchor="middle" x="276" y="-119.5" font-family="Helvetica,sans-Serif" font-size="10.00">src/entity.cpp</text>
</a>
</g>
</g>
<!-- Node2 -->
<g id="node2" class="node">
<title>Node2</title>
<g id="a_node2"><a xlink:title=" ">
<polygon fill="white" stroke="#bfbfbf" points="0,-0.5 0,-19.5 54,-19.5 54,-0.5 0,-0.5"/>
<text text-anchor="middle" x="27" y="-7.5" font-family="Helvetica,sans-Serif" font-size="10.00">iostream</text>
</a>
</g>
</g>
<!-- Node1&#45;&gt;Node2 -->
<g id="edge1" class="edge">
<title>Node1&#45;&gt;Node2</title>
<path fill="none" stroke="midnightblue" d="M254.58,-112.48C232.52,-103.62 197.19,-89.23 167,-76 127.48,-58.68 82.29,-37.43 54.2,-24.05"/>
<polygon fill="midnightblue" stroke="midnightblue" points="55.54,-20.81 45.01,-19.66 52.53,-27.13 55.54,-20.81"/>
</g>
<!-- Node3 -->
<g id="node3" class="node">
<title>Node3</title>
<g id="a_node3"><a xlink:title=" ">
<polygon fill="white" stroke="#bfbfbf" points="72,-0.5 72,-19.5 122,-19.5 122,-0.5 72,-0.5"/>
<text text-anchor="middle" x="97" y="-7.5" font-family="Helvetica,sans-Serif" font-size="10.00">fstream</text>
</a>
</g>
</g>
<!-- Node1&#45;&gt;Node3 -->
<g id="edge2" class="edge">
<title>Node1&#45;&gt;Node3</title>
<path fill="none" stroke="midnightblue" d="M261.95,-112.37C231.11,-93.41 157.21,-48 119.69,-24.94"/>
<polygon fill="midnightblue" stroke="midnightblue" points="121.33,-21.85 110.98,-19.59 117.67,-27.81 121.33,-21.85"/>
</g>
<!-- Node4 -->
<g id="node4" class="node">
<title>Node4</title>
<g id="a_node4"><a xlink:title=" ">
<polygon fill="white" stroke="#bfbfbf" points="140.5,-0.5 140.5,-19.5 199.5,-19.5 199.5,-0.5 140.5,-0.5"/>
<text text-anchor="middle" x="170" y="-7.5" font-family="Helvetica,sans-Serif" font-size="10.00">ncurses.h</text>
</a>
</g>
</g>
<!-- Node1&#45;&gt;Node4 -->
<g id="edge3" class="edge">
<title>Node1&#45;&gt;Node4</title>
<path fill="none" stroke="midnightblue" d="M267.68,-112.37C249.96,-93.97 208.23,-50.67 185.47,-27.05"/>
<polygon fill="midnightblue" stroke="midnightblue" points="187.74,-24.36 178.28,-19.59 182.7,-29.22 187.74,-24.36"/>
</g>
<!-- Node5 -->
<g id="node5" class="node">
<title>Node5</title>
<g id="a_node5"><a xlink:title=" ">
<polygon fill="white" stroke="#bfbfbf" points="218,-0.5 218,-19.5 270,-19.5 270,-0.5 218,-0.5"/>
<text text-anchor="middle" x="244" y="-7.5" font-family="Helvetica,sans-Serif" font-size="10.00">sstream</text>
</a>
</g>
</g>
<!-- Node1&#45;&gt;Node5 -->
<g id="edge4" class="edge">
<title>Node1&#45;&gt;Node5</title>
<path fill="none" stroke="midnightblue" d="M266.98,-112.34C258.93,-103.93 247.7,-90.36 243,-76 238.11,-61.07 238.84,-43.15 240.51,-29.92"/>
<polygon fill="midnightblue" stroke="midnightblue" points="244.03,-30.1 242.12,-19.68 237.11,-29.02 244.03,-30.1"/>
</g>
<!-- Node6 -->
<g id="node6" class="node">
<title>Node6</title>
<g id="a_node6"><a xlink:title=" ">
<polygon fill="white" stroke="#bfbfbf" points="288.5,-0.5 288.5,-19.5 329.5,-19.5 329.5,-0.5 288.5,-0.5"/>
<text text-anchor="middle" x="309" y="-7.5" font-family="Helvetica,sans-Serif" font-size="10.00">string</text>
</a>
</g>
</g>
<!-- Node1&#45;&gt;Node6 -->
<g id="edge5" class="edge">
<title>Node1&#45;&gt;Node6</title>
<path fill="none" stroke="midnightblue" d="M284.7,-112.27C292.48,-103.81 303.34,-90.21 308,-76 312.89,-61.07 312.76,-43.15 311.62,-29.92"/>
<polygon fill="midnightblue" stroke="midnightblue" points="315.06,-29.22 310.46,-19.68 308.11,-30.01 315.06,-29.22"/>
</g>
<!-- Node7 -->
<g id="node7" class="node">
<title>Node7</title>
<g id="a_node7"><a xlink:title=" ">
<polygon fill="white" stroke="#bfbfbf" points="348,-0.5 348,-19.5 404,-19.5 404,-0.5 348,-0.5"/>
<text text-anchor="middle" x="376" y="-7.5" font-family="Helvetica,sans-Serif" font-size="10.00">algorithm</text>
</a>
</g>
</g>
<!-- Node1&#45;&gt;Node7 -->
<g id="edge6" class="edge">
<title>Node1&#45;&gt;Node7</title>
<path fill="none" stroke="midnightblue" d="M285.95,-112.42C295.94,-103.64 311.59,-89.42 324,-76 338.35,-60.48 353.27,-41.48 363.43,-28.04"/>
<polygon fill="midnightblue" stroke="midnightblue" points="366.46,-29.84 369.64,-19.73 360.85,-25.65 366.46,-29.84"/>
</g>
<!-- Node8 -->
<g id="node8" class="node">
<title>Node8</title>
<g id="a_node8"><a xlink:title=" ">
<polygon fill="white" stroke="#bfbfbf" points="422.5,-0.5 422.5,-19.5 457.5,-19.5 457.5,-0.5 422.5,-0.5"/>
<text text-anchor="middle" x="440" y="-7.5" font-family="Helvetica,sans-Serif" font-size="10.00">map</text>
</a>
</g>
</g>
<!-- Node1&#45;&gt;Node8 -->
<g id="edge7" class="edge">
<title>Node1&#45;&gt;Node8</title>
<path fill="none" stroke="midnightblue" d="M290,-112.39C304.4,-103.46 327.44,-89.02 347,-76 372.36,-59.11 401.03,-38.9 419.75,-25.55"/>
<polygon fill="midnightblue" stroke="midnightblue" points="421.98,-28.25 428.08,-19.59 417.91,-22.56 421.98,-28.25"/>
</g>
<!-- Node9 -->
<g id="node9" class="node">
<title>Node9</title>
<g id="a_node9"><a xlink:title=" ">
<polygon fill="white" stroke="#bfbfbf" points="475.5,-0.5 475.5,-19.5 516.5,-19.5 516.5,-0.5 475.5,-0.5"/>
<text text-anchor="middle" x="496" y="-7.5" font-family="Helvetica,sans-Serif" font-size="10.00">regex</text>
</a>
</g>
</g>
<!-- Node1&#45;&gt;Node9 -->
<g id="edge8" class="edge">
<title>Node1&#45;&gt;Node9</title>
<path fill="none" stroke="midnightblue" d="M296.12,-112.46C316.46,-103.71 348.7,-89.51 376,-76 409.93,-59.2 448.25,-38.05 472.27,-24.53"/>
<polygon fill="midnightblue" stroke="midnightblue" points="474.05,-27.54 481.03,-19.57 470.6,-21.45 474.05,-27.54"/>
</g>
<!-- Node10 -->
<g id="node10" class="node">
<title>Node10</title>
<g id="a_node10"><a xlink:href="entity_8h.html" target="_top" xlink:title=" ">
<polygon fill="white" stroke="black" points="252.5,-56.5 252.5,-75.5 299.5,-75.5 299.5,-56.5 252.5,-56.5"/>
<text text-anchor="middle" x="276" y="-63.5" font-family="Helvetica,sans-Serif" font-size="10.00">entity.h</text>
</a>
</g>
</g>
<!-- Node1&#45;&gt;Node10 -->
<g id="edge9" class="edge">
<title>Node1&#45;&gt;Node10</title>
<path fill="none" stroke="midnightblue" d="M276,-112.08C276,-105.01 276,-94.86 276,-85.99"/>
<polygon fill="midnightblue" stroke="midnightblue" points="279.5,-85.75 276,-75.75 272.5,-85.75 279.5,-85.75"/>
</g>
<!-- Node10&#45;&gt;Node2 -->
<g id="edge10" class="edge">
<title>Node10&#45;&gt;Node2</title>
<path fill="none" stroke="midnightblue" d="M252.3,-60.29C214.6,-52.73 138.42,-37.2 64.1,-20.19"/>
<polygon fill="midnightblue" stroke="midnightblue" points="64.63,-16.72 54.1,-17.89 63.06,-23.54 64.63,-16.72"/>
</g>
<!-- Node10&#45;&gt;Node3 -->
<g id="edge11" class="edge">
<title>Node10&#45;&gt;Node3</title>
<path fill="none" stroke="midnightblue" d="M252.23,-57.83C221.42,-48.53 167.43,-32.25 131.95,-21.54"/>
<polygon fill="midnightblue" stroke="midnightblue" points="132.61,-18.09 122.02,-18.55 130.58,-24.79 132.61,-18.09"/>
</g>
<!-- Node10&#45;&gt;Node4 -->
<g id="edge12" class="edge">
<title>Node10&#45;&gt;Node4</title>
<path fill="none" stroke="midnightblue" d="M258.97,-56.32C241.97,-47.66 215.62,-34.24 196.01,-24.25"/>
<polygon fill="midnightblue" stroke="midnightblue" points="197.49,-21.08 186.99,-19.65 194.31,-27.31 197.49,-21.08"/>
</g>
<!-- Node10&#45;&gt;Node5 -->
<g id="edge13" class="edge">
<title>Node10&#45;&gt;Node5</title>
<path fill="none" stroke="midnightblue" d="M270.72,-56.08C266.29,-48.61 259.84,-37.72 254.38,-28.52"/>
<polygon fill="midnightblue" stroke="midnightblue" points="257.29,-26.57 249.19,-19.75 251.27,-30.14 257.29,-26.57"/>
</g>
<!-- Node10&#45;&gt;Node6 -->
<g id="edge14" class="edge">
<title>Node10&#45;&gt;Node6</title>
<path fill="none" stroke="midnightblue" d="M281.45,-56.08C286.01,-48.61 292.67,-37.72 298.29,-28.52"/>
<polygon fill="midnightblue" stroke="midnightblue" points="301.42,-30.11 303.65,-19.75 295.45,-26.46 301.42,-30.11"/>
</g>
<!-- Node10&#45;&gt;Node7 -->
<g id="edge15" class="edge">
<title>Node10&#45;&gt;Node7</title>
<path fill="none" stroke="midnightblue" d="M292.07,-56.32C307.96,-47.74 332.51,-34.49 350.96,-24.52"/>
<polygon fill="midnightblue" stroke="midnightblue" points="352.84,-27.49 359.97,-19.65 349.51,-21.33 352.84,-27.49"/>
</g>
<!-- Node10&#45;&gt;Node8 -->
<g id="edge16" class="edge">
<title>Node10&#45;&gt;Node8</title>
<path fill="none" stroke="midnightblue" d="M299.77,-57.23C325.29,-48.88 367.25,-35.12 412.57,-20.13"/>
<polygon fill="midnightblue" stroke="midnightblue" points="413.89,-23.38 422.28,-16.92 411.69,-16.74 413.89,-23.38"/>
</g>
<!-- Node10&#45;&gt;Node9 -->
<g id="edge17" class="edge">
<title>Node10&#45;&gt;Node9</title>
<path fill="none" stroke="midnightblue" d="M299.66,-59.98C334.11,-52.55 400.3,-37.84 465.44,-20.29"/>
<polygon fill="midnightblue" stroke="midnightblue" points="466.73,-23.57 475.46,-17.57 464.89,-16.82 466.73,-23.57"/>
</g>
</g>
</svg>
