<?xml version="1.0" encoding="UTF-8" standalone="no"?>
<!DOCTYPE svg PUBLIC "-//W3C//DTD SVG 1.1//EN"
 "http://www.w3.org/Graphics/SVG/1.1/DTD/svg11.dtd">
<!-- Generated by graphviz version 3.0.0 (0)
 -->
<!-- Title: Graphical Class Hierarchy Pages: 1 -->
<svg width="233pt" height="104pt"
 viewBox="0.00 0.00 233.00 104.00" xmlns="http://www.w3.org/2000/svg" xmlns:xlink="http://www.w3.org/1999/xlink">
<g id="graph0" class="graph" transform="scale(1 1) rotate(0) translate(4 100)">
<title>Graphical Class Hierarchy</title>
<polygon fill="white" stroke="transparent" points="-4,4 -4,-100 229,-100 229,4 -4,4"/>
<!-- Node0 -->
<g id="node1" class="node">
<title>Node0</title>
<g id="a_node1"><a xlink:href="classEntity.html" target="_top" xlink:title=" ">
<polygon fill="white" stroke="black" points="0,-38.5 0,-57.5 42,-57.5 42,-38.5 0,-38.5"/>
<text text-anchor="middle" x="21" y="-45.5" font-family="Helvetica,sans-Serif" font-size="10.00">Entity</text>
</a>
</g>
</g>
<!-- Node1 -->
<g id="node2" class="node">
<title>Node1</title>
<g id="a_node2"><a xlink:href="classTower.html" target="_top" xlink:title=" ">
<polygon fill="white" stroke="black" points="78,-38.5 78,-57.5 121,-57.5 121,-38.5 78,-38.5"/>
<text text-anchor="middle" x="99.5" y="-45.5" font-family="Helvetica,sans-Serif" font-size="10.00">Tower</text>
</a>
</g>
</g>
<!-- Node0&#45;&gt;Node1 -->
<g id="edge1" class="edge">
<title>Node0&#45;&gt;Node1</title>
<path fill="none" stroke="midnightblue" d="M52.15,-48C60.72,-48 69.86,-48 77.73,-48"/>
<polygon fill="midnightblue" stroke="midnightblue" points="52.1,-44.5 42.1,-48 52.1,-51.5 52.1,-44.5"/>
</g>
<!-- Node2 -->
<g id="node3" class="node">
<title>Node2</title>
<g id="a_node3"><a xlink:href="classBasicTower.html" target="_top" xlink:title=" ">
<polygon fill="white" stroke="black" points="157,-76.5 157,-95.5 225,-95.5 225,-76.5 157,-76.5"/>
<text text-anchor="middle" x="191" y="-83.5" font-family="Helvetica,sans-Serif" font-size="10.00">BasicTower</text>
</a>
</g>
</g>
<!-- Node1&#45;&gt;Node2 -->
<g id="edge2" class="edge">
<title>Node1&#45;&gt;Node2</title>
<path fill="none" stroke="midnightblue" d="M130.52,-60.74C142.59,-65.87 156.28,-71.68 167.47,-76.44"/>
<polygon fill="midnightblue" stroke="midnightblue" points="131.83,-57.5 121.26,-56.81 129.09,-63.94 131.83,-57.5"/>
</g>
<!-- Node3 -->
<g id="node4" class="node">
<title>Node3</title>
<g id="a_node4"><a xlink:href="classFireTower.html" target="_top" xlink:title=" ">
<polygon fill="white" stroke="black" points="161.5,-38.5 161.5,-57.5 220.5,-57.5 220.5,-38.5 161.5,-38.5"/>
<text text-anchor="middle" x="191" y="-45.5" font-family="Helvetica,sans-Serif" font-size="10.00">FireTower</text>
</a>
</g>
</g>
<!-- Node1&#45;&gt;Node3 -->
<g id="edge3" class="edge">
<title>Node1&#45;&gt;Node3</title>
<path fill="none" stroke="midnightblue" d="M131.3,-48C141,-48 151.67,-48 161.22,-48"/>
<polygon fill="midnightblue" stroke="midnightblue" points="131.26,-44.5 121.26,-48 131.26,-51.5 131.26,-44.5"/>
</g>
<!-- Node4 -->
<g id="node5" class="node">
<title>Node4</title>
<g id="a_node5"><a xlink:href="classIceTower.html" target="_top" xlink:title=" ">
<polygon fill="white" stroke="black" points="163,-0.5 163,-19.5 219,-19.5 219,-0.5 163,-0.5"/>
<text text-anchor="middle" x="191" y="-7.5" font-family="Helvetica,sans-Serif" font-size="10.00">IceTower</text>
</a>
</g>
</g>
<!-- Node1&#45;&gt;Node4 -->
<g id="edge4" class="edge">
<title>Node1&#45;&gt;Node4</title>
<path fill="none" stroke="midnightblue" d="M130.52,-35.26C142.59,-30.13 156.28,-24.32 167.47,-19.56"/>
<polygon fill="midnightblue" stroke="midnightblue" points="129.09,-32.06 121.26,-39.19 131.83,-38.5 129.09,-32.06"/>
</g>
</g>
</svg>
