<?xml version="1.0" encoding="UTF-8" standalone="no"?>
<!DOCTYPE svg PUBLIC "-//W3C//DTD SVG 1.1//EN"
 "http://www.w3.org/Graphics/SVG/1.1/DTD/svg11.dtd">
<!-- Generated by graphviz version 3.0.0 (0)
 -->
<!-- Title: src/main.cpp Pages: 1 -->
<svg width="804pt" height="140pt"
 viewBox="0.00 0.00 804.00 140.00" xmlns="http://www.w3.org/2000/svg" xmlns:xlink="http://www.w3.org/1999/xlink">
<g id="graph0" class="graph" transform="scale(1 1) rotate(0) translate(4 136)">
<title>src/main.cpp</title>
<polygon fill="white" stroke="transparent" points="-4,4 -4,-136 800,-136 800,4 -4,4"/>
<!-- Node1 -->
<g id="node1" class="node">
<title>Node1</title>
<g id="a_node1"><a xlink:title=" ">
<polygon fill="#bfbfbf" stroke="black" points="202.5,-112.5 202.5,-131.5 275.5,-131.5 275.5,-112.5 202.5,-112.5"/>
<text text-anchor="middle" x="239" y="-119.5" font-family="Helvetica,sans-Serif" font-size="10.00">src/main.cpp</text>
</a>
</g>
</g>
<!-- Node2 -->
<g id="node2" class="node">
<title>Node2</title>
<g id="a_node2"><a xlink:title=" ">
<polygon fill="white" stroke="#bfbfbf" points="417,-0.5 417,-19.5 471,-19.5 471,-0.5 417,-0.5"/>
<text text-anchor="middle" x="444" y="-7.5" font-family="Helvetica,sans-Serif" font-size="10.00">iostream</text>
</a>
</g>
</g>
<!-- Node1&#45;&gt;Node2 -->
<g id="edge1" class="edge">
<title>Node1&#45;&gt;Node2</title>
<path fill="none" stroke="midnightblue" d="M255.09,-112.37C290.71,-93.25 376.48,-47.23 419.1,-24.36"/>
<polygon fill="midnightblue" stroke="midnightblue" points="420.83,-27.4 427.99,-19.59 417.52,-21.24 420.83,-27.4"/>
</g>
<!-- Node3 -->
<g id="node3" class="node">
<title>Node3</title>
<g id="a_node3"><a xlink:title=" ">
<polygon fill="white" stroke="#bfbfbf" points="132.5,-0.5 132.5,-19.5 191.5,-19.5 191.5,-0.5 132.5,-0.5"/>
<text text-anchor="middle" x="162" y="-7.5" font-family="Helvetica,sans-Serif" font-size="10.00">ncurses.h</text>
</a>
</g>
</g>
<!-- Node1&#45;&gt;Node3 -->
<g id="edge2" class="edge">
<title>Node1&#45;&gt;Node3</title>
<path fill="none" stroke="midnightblue" d="M232.96,-112.37C220.25,-94.22 190.56,-51.8 173.89,-27.99"/>
<polygon fill="midnightblue" stroke="midnightblue" points="176.62,-25.78 168.01,-19.59 170.88,-29.79 176.62,-25.78"/>
</g>
<!-- Node4 -->
<g id="node4" class="node">
<title>Node4</title>
<g id="a_node4"><a xlink:href="menu_8h.html" target="_top" xlink:title=" ">
<polygon fill="white" stroke="black" points="111.5,-56.5 111.5,-75.5 160.5,-75.5 160.5,-56.5 111.5,-56.5"/>
<text text-anchor="middle" x="136" y="-63.5" font-family="Helvetica,sans-Serif" font-size="10.00">menu.h</text>
</a>
</g>
</g>
<!-- Node1&#45;&gt;Node4 -->
<g id="edge3" class="edge">
<title>Node1&#45;&gt;Node4</title>
<path fill="none" stroke="midnightblue" d="M222.45,-112.32C206.01,-103.7 180.57,-90.36 161.53,-80.39"/>
<polygon fill="midnightblue" stroke="midnightblue" points="162.99,-77.2 152.51,-75.65 159.74,-83.4 162.99,-77.2"/>
</g>
<!-- Node8 -->
<g id="node8" class="node">
<title>Node8</title>
<g id="a_node8"><a xlink:href="map_8h.html" target="_top" xlink:title=" ">
<polygon fill="white" stroke="black" points="217,-56.5 217,-75.5 261,-75.5 261,-56.5 217,-56.5"/>
<text text-anchor="middle" x="239" y="-63.5" font-family="Helvetica,sans-Serif" font-size="10.00">map.h</text>
</a>
</g>
</g>
<!-- Node1&#45;&gt;Node8 -->
<g id="edge8" class="edge">
<title>Node1&#45;&gt;Node8</title>
<path fill="none" stroke="midnightblue" d="M239,-112.08C239,-105.01 239,-94.86 239,-85.99"/>
<polygon fill="midnightblue" stroke="midnightblue" points="242.5,-85.75 239,-75.75 235.5,-85.75 242.5,-85.75"/>
</g>
<!-- Node11 -->
<g id="node11" class="node">
<title>Node11</title>
<g id="a_node11"><a xlink:href="entity_8h.html" target="_top" xlink:title=" ">
<polygon fill="white" stroke="black" points="483.5,-56.5 483.5,-75.5 530.5,-75.5 530.5,-56.5 483.5,-56.5"/>
<text text-anchor="middle" x="507" y="-63.5" font-family="Helvetica,sans-Serif" font-size="10.00">entity.h</text>
</a>
</g>
</g>
<!-- Node1&#45;&gt;Node11 -->
<g id="edge15" class="edge">
<title>Node1&#45;&gt;Node11</title>
<path fill="none" stroke="midnightblue" d="M275.7,-113.6C327.9,-103.09 422.83,-83.96 473.32,-73.79"/>
<polygon fill="midnightblue" stroke="midnightblue" points="474.27,-77.16 483.38,-71.76 472.89,-70.3 474.27,-77.16"/>
</g>
<!-- Node4&#45;&gt;Node3 -->
<g id="edge4" class="edge">
<title>Node4&#45;&gt;Node3</title>
<path fill="none" stroke="midnightblue" d="M140.29,-56.08C143.85,-48.69 149.02,-37.95 153.42,-28.81"/>
<polygon fill="midnightblue" stroke="midnightblue" points="156.6,-30.28 157.79,-19.75 150.29,-27.24 156.6,-30.28"/>
</g>
<!-- Node5 -->
<g id="node5" class="node">
<title>Node5</title>
<g id="a_node5"><a xlink:title=" ">
<polygon fill="white" stroke="#bfbfbf" points="357.5,-0.5 357.5,-19.5 398.5,-19.5 398.5,-0.5 357.5,-0.5"/>
<text text-anchor="middle" x="378" y="-7.5" font-family="Helvetica,sans-Serif" font-size="10.00">string</text>
</a>
</g>
</g>
<!-- Node4&#45;&gt;Node5 -->
<g id="edge5" class="edge">
<title>Node4&#45;&gt;Node5</title>
<path fill="none" stroke="midnightblue" d="M160.64,-60.45C198.61,-53.3 273.91,-38.54 347.51,-19.95"/>
<polygon fill="midnightblue" stroke="midnightblue" points="348.58,-23.29 357.41,-17.42 346.85,-16.5 348.58,-23.29"/>
</g>
<!-- Node6 -->
<g id="node6" class="node">
<title>Node6</title>
<g id="a_node6"><a xlink:title=" ">
<polygon fill="white" stroke="#bfbfbf" points="0,-0.5 0,-19.5 44,-19.5 44,-0.5 0,-0.5"/>
<text text-anchor="middle" x="22" y="-7.5" font-family="Helvetica,sans-Serif" font-size="10.00">vector</text>
</a>
</g>
</g>
<!-- Node4&#45;&gt;Node6 -->
<g id="edge6" class="edge">
<title>Node4&#45;&gt;Node6</title>
<path fill="none" stroke="midnightblue" d="M117.94,-56.44C99.43,-47.68 70.42,-33.94 49.14,-23.86"/>
<polygon fill="midnightblue" stroke="midnightblue" points="50.51,-20.63 39.98,-19.52 47.52,-26.96 50.51,-20.63"/>
</g>
<!-- Node7 -->
<g id="node7" class="node">
<title>Node7</title>
<g id="a_node7"><a xlink:title=" ">
<polygon fill="white" stroke="#bfbfbf" points="62,-0.5 62,-19.5 114,-19.5 114,-0.5 62,-0.5"/>
<text text-anchor="middle" x="88" y="-7.5" font-family="Helvetica,sans-Serif" font-size="10.00">memory</text>
</a>
</g>
</g>
<!-- Node4&#45;&gt;Node7 -->
<g id="edge7" class="edge">
<title>Node4&#45;&gt;Node7</title>
<path fill="none" stroke="midnightblue" d="M128.07,-56.08C121.15,-48.3 110.93,-36.8 102.55,-27.37"/>
<polygon fill="midnightblue" stroke="midnightblue" points="105.04,-24.9 95.78,-19.75 99.81,-29.55 105.04,-24.9"/>
</g>
<!-- Node8&#45;&gt;Node3 -->
<g id="edge9" class="edge">
<title>Node8&#45;&gt;Node3</title>
<path fill="none" stroke="midnightblue" d="M226.63,-56.32C214.84,-48.06 196.87,-35.45 182.86,-25.63"/>
<polygon fill="midnightblue" stroke="midnightblue" points="184.54,-22.53 174.34,-19.65 180.52,-28.26 184.54,-22.53"/>
</g>
<!-- Node8&#45;&gt;Node5 -->
<g id="edge13" class="edge">
<title>Node8&#45;&gt;Node5</title>
<path fill="none" stroke="midnightblue" d="M261.02,-56.44C284.51,-47.32 321.85,-32.81 348.01,-22.65"/>
<polygon fill="midnightblue" stroke="midnightblue" points="349.38,-25.87 357.44,-18.99 346.85,-19.35 349.38,-25.87"/>
</g>
<!-- Node8&#45;&gt;Node6 -->
<g id="edge14" class="edge">
<title>Node8&#45;&gt;Node6</title>
<path fill="none" stroke="midnightblue" d="M216.87,-59.99C183.64,-52.39 118.67,-37.25 54.23,-20.24"/>
<polygon fill="midnightblue" stroke="midnightblue" points="54.88,-16.79 44.32,-17.61 53.08,-23.56 54.88,-16.79"/>
</g>
<!-- Node8&#45;&gt;Node7 -->
<g id="edge11" class="edge">
<title>Node8&#45;&gt;Node7</title>
<path fill="none" stroke="midnightblue" d="M216.72,-57.03C191.62,-48.06 150.56,-33.37 121.57,-23.01"/>
<polygon fill="midnightblue" stroke="midnightblue" points="122.46,-19.61 111.87,-19.54 120.11,-26.2 122.46,-19.61"/>
</g>
<!-- Node9 -->
<g id="node9" class="node">
<title>Node9</title>
<g id="a_node9"><a xlink:title=" ">
<polygon fill="white" stroke="#bfbfbf" points="209.5,-0.5 209.5,-19.5 268.5,-19.5 268.5,-0.5 209.5,-0.5"/>
<text text-anchor="middle" x="239" y="-7.5" font-family="Helvetica,sans-Serif" font-size="10.00">functional</text>
</a>
</g>
</g>
<!-- Node8&#45;&gt;Node9 -->
<g id="edge10" class="edge">
<title>Node8&#45;&gt;Node9</title>
<path fill="none" stroke="midnightblue" d="M239,-56.08C239,-49.01 239,-38.86 239,-29.99"/>
<polygon fill="midnightblue" stroke="midnightblue" points="242.5,-29.75 239,-19.75 235.5,-29.75 242.5,-29.75"/>
</g>
<!-- Node10 -->
<g id="node10" class="node">
<title>Node10</title>
<g id="a_node10"><a xlink:title=" ">
<polygon fill="white" stroke="#bfbfbf" points="287,-0.5 287,-19.5 339,-19.5 339,-0.5 287,-0.5"/>
<text text-anchor="middle" x="313" y="-7.5" font-family="Helvetica,sans-Serif" font-size="10.00">ostream</text>
</a>
</g>
</g>
<!-- Node8&#45;&gt;Node10 -->
<g id="edge12" class="edge">
<title>Node8&#45;&gt;Node10</title>
<path fill="none" stroke="midnightblue" d="M250.89,-56.32C262.15,-48.11 279.29,-35.6 292.71,-25.81"/>
<polygon fill="midnightblue" stroke="midnightblue" points="294.88,-28.56 300.89,-19.83 290.75,-22.9 294.88,-28.56"/>
</g>
<!-- Node11&#45;&gt;Node2 -->
<g id="edge16" class="edge">
<title>Node11&#45;&gt;Node2</title>
<path fill="none" stroke="midnightblue" d="M496.88,-56.32C487.47,-48.26 473.26,-36.08 461.93,-26.37"/>
<polygon fill="midnightblue" stroke="midnightblue" points="464.18,-23.68 454.31,-19.83 459.62,-29 464.18,-23.68"/>
</g>
<!-- Node11&#45;&gt;Node3 -->
<g id="edge18" class="edge">
<title>Node11&#45;&gt;Node3</title>
<path fill="none" stroke="midnightblue" d="M483.39,-62.25C433.27,-56.26 312.38,-41.02 201.8,-20.22"/>
<polygon fill="midnightblue" stroke="midnightblue" points="202.3,-16.75 191.82,-18.32 200.99,-23.63 202.3,-16.75"/>
</g>
<!-- Node11&#45;&gt;Node5 -->
<g id="edge20" class="edge">
<title>Node11&#45;&gt;Node5</title>
<path fill="none" stroke="midnightblue" d="M486.56,-56.44C465.33,-47.56 431.9,-33.56 407.75,-23.45"/>
<polygon fill="midnightblue" stroke="midnightblue" points="408.92,-20.15 398.34,-19.52 406.22,-26.61 408.92,-20.15"/>
</g>
<!-- Node12 -->
<g id="node12" class="node">
<title>Node12</title>
<g id="a_node12"><a xlink:title=" ">
<polygon fill="white" stroke="#bfbfbf" points="602,-0.5 602,-19.5 652,-19.5 652,-0.5 602,-0.5"/>
<text text-anchor="middle" x="627" y="-7.5" font-family="Helvetica,sans-Serif" font-size="10.00">fstream</text>
</a>
</g>
</g>
<!-- Node11&#45;&gt;Node12 -->
<g id="edge17" class="edge">
<title>Node11&#45;&gt;Node12</title>
<path fill="none" stroke="midnightblue" d="M526.01,-56.44C545.59,-47.64 576.31,-33.81 598.73,-23.72"/>
<polygon fill="midnightblue" stroke="midnightblue" points="600.39,-26.81 608.07,-19.52 597.52,-20.43 600.39,-26.81"/>
</g>
<!-- Node13 -->
<g id="node13" class="node">
<title>Node13</title>
<g id="a_node13"><a xlink:title=" ">
<polygon fill="white" stroke="#bfbfbf" points="670,-0.5 670,-19.5 722,-19.5 722,-0.5 670,-0.5"/>
<text text-anchor="middle" x="696" y="-7.5" font-family="Helvetica,sans-Serif" font-size="10.00">sstream</text>
</a>
</g>
</g>
<!-- Node11&#45;&gt;Node13 -->
<g id="edge19" class="edge">
<title>Node11&#45;&gt;Node13</title>
<path fill="none" stroke="midnightblue" d="M530.55,-58.27C563.07,-48.98 622.01,-32.14 660.05,-21.27"/>
<polygon fill="midnightblue" stroke="midnightblue" points="661.06,-24.62 669.72,-18.51 659.14,-17.89 661.06,-24.62"/>
</g>
<!-- Node14 -->
<g id="node14" class="node">
<title>Node14</title>
<g id="a_node14"><a xlink:title=" ">
<polygon fill="white" stroke="#bfbfbf" points="740,-0.5 740,-19.5 796,-19.5 796,-0.5 740,-0.5"/>
<text text-anchor="middle" x="768" y="-7.5" font-family="Helvetica,sans-Serif" font-size="10.00">algorithm</text>
</a>
</g>
</g>
<!-- Node11&#45;&gt;Node14 -->
<g id="edge21" class="edge">
<title>Node11&#45;&gt;Node14</title>
<path fill="none" stroke="midnightblue" d="M530.61,-60.58C569.84,-53.17 651.17,-37.51 729.69,-20.22"/>
<polygon fill="midnightblue" stroke="midnightblue" points="730.74,-23.58 739.75,-18 729.23,-16.74 730.74,-23.58"/>
</g>
<!-- Node15 -->
<g id="node15" class="node">
<title>Node15</title>
<g id="a_node15"><a xlink:title=" ">
<polygon fill="white" stroke="#bfbfbf" points="489.5,-0.5 489.5,-19.5 524.5,-19.5 524.5,-0.5 489.5,-0.5"/>
<text text-anchor="middle" x="507" y="-7.5" font-family="Helvetica,sans-Serif" font-size="10.00">map</text>
</a>
</g>
</g>
<!-- Node11&#45;&gt;Node15 -->
<g id="edge22" class="edge">
<title>Node11&#45;&gt;Node15</title>
<path fill="none" stroke="midnightblue" d="M507,-56.08C507,-49.01 507,-38.86 507,-29.99"/>
<polygon fill="midnightblue" stroke="midnightblue" points="510.5,-29.75 507,-19.75 503.5,-29.75 510.5,-29.75"/>
</g>
<!-- Node16 -->
<g id="node16" class="node">
<title>Node16</title>
<g id="a_node16"><a xlink:title=" ">
<polygon fill="white" stroke="#bfbfbf" points="542.5,-0.5 542.5,-19.5 583.5,-19.5 583.5,-0.5 542.5,-0.5"/>
<text text-anchor="middle" x="563" y="-7.5" font-family="Helvetica,sans-Serif" font-size="10.00">regex</text>
</a>
</g>
</g>
<!-- Node11&#45;&gt;Node16 -->
<g id="edge23" class="edge">
<title>Node11&#45;&gt;Node16</title>
<path fill="none" stroke="midnightblue" d="M516,-56.32C524.19,-48.42 536.51,-36.55 546.47,-26.94"/>
<polygon fill="midnightblue" stroke="midnightblue" points="549.07,-29.29 553.84,-19.83 544.21,-24.26 549.07,-29.29"/>
</g>
</g>
</svg>
