<?xml version="1.0" encoding="UTF-8" standalone="no"?>
<!DOCTYPE svg PUBLIC "-//W3C//DTD SVG 1.1//EN"
 "http://www.w3.org/Graphics/SVG/1.1/DTD/svg11.dtd">
<!-- Generated by graphviz version 3.0.0 (0)
 -->
<!-- Title: main Pages: 1 -->
<svg width="455pt" height="218pt"
 viewBox="0.00 0.00 455.00 218.00" xmlns="http://www.w3.org/2000/svg" xmlns:xlink="http://www.w3.org/1999/xlink">
<g id="graph0" class="graph" transform="scale(1 1) rotate(0) translate(4 214)">
<title>main</title>
<polygon fill="white" stroke="transparent" points="-4,4 -4,-214 451,-214 451,4 -4,4"/>
<!-- Node1 -->
<g id="node1" class="node">
<title>Node1</title>
<g id="a_node1"><a xlink:title=" ">
<polygon fill="#bfbfbf" stroke="black" points="0,-76.5 0,-95.5 38,-95.5 38,-76.5 0,-76.5"/>
<text text-anchor="middle" x="19" y="-83.5" font-family="Helvetica,sans-Serif" font-size="10.00">main</text>
</a>
</g>
</g>
<!-- Node2 -->
<g id="node2" class="node">
<title>Node2</title>
<g id="a_node2"><a xlink:href="menu_8cpp.html#ac39d909a51b3cb42545995ca9386b734" target="_top" xlink:title=" ">
<polygon fill="white" stroke="black" points="79.5,-152.5 79.5,-171.5 152.5,-171.5 152.5,-152.5 79.5,-152.5"/>
<text text-anchor="middle" x="116" y="-159.5" font-family="Helvetica,sans-Serif" font-size="10.00">create_menu</text>
</a>
</g>
</g>
<!-- Node1&#45;&gt;Node2 -->
<g id="edge1" class="edge">
<title>Node1&#45;&gt;Node2</title>
<path fill="none" stroke="midnightblue" d="M27.14,-95.54C36.71,-107.8 54.74,-129.16 74,-143 76.33,-144.67 78.83,-146.26 81.4,-147.74"/>
<polygon fill="midnightblue" stroke="midnightblue" points="79.82,-150.86 90.31,-152.4 83.07,-144.66 79.82,-150.86"/>
</g>
<!-- Node6 -->
<g id="node6" class="node">
<title>Node6</title>
<g id="a_node6"><a xlink:href="classMenuBar.html#a983b009101ecde332e9c143fa90ce36e" target="_top" xlink:title="draws the menu window on the terminal and also handles pressed keys">
<polygon fill="white" stroke="black" points="74.5,-114.5 74.5,-133.5 157.5,-133.5 157.5,-114.5 74.5,-114.5"/>
<text text-anchor="middle" x="116" y="-121.5" font-family="Helvetica,sans-Serif" font-size="10.00">MenuBar::draw</text>
</a>
</g>
</g>
<!-- Node1&#45;&gt;Node6 -->
<g id="edge5" class="edge">
<title>Node1&#45;&gt;Node6</title>
<path fill="none" stroke="midnightblue" d="M38.32,-93.33C50.5,-98.2 66.85,-104.74 81.33,-110.53"/>
<polygon fill="midnightblue" stroke="midnightblue" points="80.4,-113.93 90.98,-114.39 83,-107.43 80.4,-113.93"/>
</g>
<!-- Node9 -->
<g id="node9" class="node">
<title>Node9</title>
<g id="a_node9"><a xlink:href="menu_8cpp.html#a0df18dec9298b26b73357b6a33cf3b61" target="_top" xlink:title=" ">
<polygon fill="white" stroke="black" points="77.5,-76.5 77.5,-95.5 154.5,-95.5 154.5,-76.5 77.5,-76.5"/>
<text text-anchor="middle" x="116" y="-83.5" font-family="Helvetica,sans-Serif" font-size="10.00">menu_handler</text>
</a>
</g>
</g>
<!-- Node1&#45;&gt;Node9 -->
<g id="edge8" class="edge">
<title>Node1&#45;&gt;Node9</title>
<path fill="none" stroke="midnightblue" d="M38.32,-86C46.65,-86 56.93,-86 67.23,-86"/>
<polygon fill="midnightblue" stroke="midnightblue" points="67.47,-89.5 77.47,-86 67.47,-82.5 67.47,-89.5"/>
</g>
<!-- Node10 -->
<g id="node10" class="node">
<title>Node10</title>
<g id="a_node10"><a xlink:href="classMap.html#af7bab90aa80462f653b6e54da17458e7" target="_top" xlink:title="prints out a map from a _map vector">
<polygon fill="white" stroke="black" points="74,-38.5 74,-57.5 158,-57.5 158,-38.5 74,-38.5"/>
<text text-anchor="middle" x="116" y="-45.5" font-family="Helvetica,sans-Serif" font-size="10.00">Map::print_map</text>
</a>
</g>
</g>
<!-- Node1&#45;&gt;Node10 -->
<g id="edge9" class="edge">
<title>Node1&#45;&gt;Node10</title>
<path fill="none" stroke="midnightblue" d="M38.32,-78.67C50.5,-73.8 66.85,-67.26 81.33,-61.47"/>
<polygon fill="midnightblue" stroke="midnightblue" points="83,-64.57 90.98,-57.61 80.4,-58.07 83,-64.57"/>
</g>
<!-- Node11 -->
<g id="node11" class="node">
<title>Node11</title>
<g id="a_node11"><a xlink:href="map_8cpp.html#a12ad24145ae76c46f335350c25cf4bf0" target="_top" xlink:title="copies a string that represent map from a file generates it on the screen and also return the string">
<polygon fill="white" stroke="black" points="86.5,-0.5 86.5,-19.5 145.5,-19.5 145.5,-0.5 86.5,-0.5"/>
<text text-anchor="middle" x="116" y="-7.5" font-family="Helvetica,sans-Serif" font-size="10.00">read_map</text>
</a>
</g>
</g>
<!-- Node1&#45;&gt;Node11 -->
<g id="edge10" class="edge">
<title>Node1&#45;&gt;Node11</title>
<path fill="none" stroke="midnightblue" d="M27.14,-76.46C36.71,-64.2 54.74,-42.84 74,-29 76.33,-27.33 78.83,-25.74 81.4,-24.26"/>
<polygon fill="midnightblue" stroke="midnightblue" points="83.07,-27.34 90.31,-19.6 79.82,-21.14 83.07,-27.34"/>
</g>
<!-- Node3 -->
<g id="node3" class="node">
<title>Node3</title>
<g id="a_node3"><a xlink:href="classMenuBar.html#a01078b55d58fbea2985cdf1d556c4554" target="_top" xlink:title="add Menu item to itself, stores menu items in unique pointers">
<polygon fill="white" stroke="black" points="213.5,-190.5 213.5,-209.5 290.5,-209.5 290.5,-190.5 213.5,-190.5"/>
<text text-anchor="middle" x="252" y="-197.5" font-family="Helvetica,sans-Serif" font-size="10.00">MenuBar::add</text>
</a>
</g>
</g>
<!-- Node2&#45;&gt;Node3 -->
<g id="edge2" class="edge">
<title>Node2&#45;&gt;Node3</title>
<path fill="none" stroke="midnightblue" d="M150.81,-171.59C168.03,-176.47 189.16,-182.46 207.57,-187.68"/>
<polygon fill="midnightblue" stroke="midnightblue" points="206.62,-191.05 217.2,-190.41 208.53,-184.32 206.62,-191.05"/>
</g>
<!-- Node5 -->
<g id="node5" class="node">
<title>Node5</title>
<g id="a_node5"><a xlink:href="classMenu.html#a3b81d82a4ad8ce20f8dd84bfd45a3e6b" target="_top" xlink:title="adds option to a vector of options">
<polygon fill="white" stroke="black" points="206,-152.5 206,-171.5 298,-171.5 298,-152.5 206,-152.5"/>
<text text-anchor="middle" x="252" y="-159.5" font-family="Helvetica,sans-Serif" font-size="10.00">Menu::AddOption</text>
</a>
</g>
</g>
<!-- Node2&#45;&gt;Node5 -->
<g id="edge4" class="edge">
<title>Node2&#45;&gt;Node5</title>
<path fill="none" stroke="midnightblue" d="M152.56,-162C165.66,-162 180.84,-162 195.29,-162"/>
<polygon fill="midnightblue" stroke="midnightblue" points="195.65,-165.5 205.65,-162 195.65,-158.5 195.65,-165.5"/>
</g>
<!-- Node4 -->
<g id="node4" class="node">
<title>Node4</title>
<g id="a_node4"><a xlink:href="classMenu.html#a01394b011ff73ffd15168bbc99fd8b39" target="_top" xlink:title="Getters.">
<polygon fill="white" stroke="black" points="356,-190.5 356,-209.5 437,-209.5 437,-190.5 356,-190.5"/>
<text text-anchor="middle" x="396.5" y="-197.5" font-family="Helvetica,sans-Serif" font-size="10.00">Menu::GetText</text>
</a>
</g>
</g>
<!-- Node3&#45;&gt;Node4 -->
<g id="edge3" class="edge">
<title>Node3&#45;&gt;Node4</title>
<path fill="none" stroke="midnightblue" d="M290.81,-200C307.64,-200 327.69,-200 345.71,-200"/>
<polygon fill="midnightblue" stroke="midnightblue" points="345.77,-203.5 355.77,-200 345.77,-196.5 345.77,-203.5"/>
</g>
<!-- Node7 -->
<g id="node7" class="node">
<title>Node7</title>
<g id="a_node7"><a xlink:href="classMenuBar.html#ab42f42a7ef6cb5a6c291eaca0aea1f0a" target="_top" xlink:title="draws options for each menu item, everytime a designed trigger key is pressed">
<polygon fill="white" stroke="black" points="194,-114.5 194,-133.5 310,-133.5 310,-114.5 194,-114.5"/>
<text text-anchor="middle" x="252" y="-121.5" font-family="Helvetica,sans-Serif" font-size="10.00">MenuBar::drawOptions</text>
</a>
</g>
</g>
<!-- Node6&#45;&gt;Node7 -->
<g id="edge6" class="edge">
<title>Node6&#45;&gt;Node7</title>
<path fill="none" stroke="midnightblue" d="M157.57,-124C165.85,-124 174.78,-124 183.71,-124"/>
<polygon fill="midnightblue" stroke="midnightblue" points="183.76,-127.5 193.76,-124 183.76,-120.5 183.76,-127.5"/>
</g>
<!-- Node8 -->
<g id="node8" class="node">
<title>Node8</title>
<g id="a_node8"><a xlink:href="classMenu.html#a190f23fca252b55f1cc3da08e339f99c" target="_top" xlink:title=" ">
<polygon fill="white" stroke="black" points="346,-114.5 346,-133.5 447,-133.5 447,-114.5 346,-114.5"/>
<text text-anchor="middle" x="396.5" y="-121.5" font-family="Helvetica,sans-Serif" font-size="10.00">Menu::GetSelected</text>
</a>
</g>
</g>
<!-- Node7&#45;&gt;Node8 -->
<g id="edge7" class="edge">
<title>Node7&#45;&gt;Node8</title>
<path fill="none" stroke="midnightblue" d="M310.14,-124C318.51,-124 327.14,-124 335.57,-124"/>
<polygon fill="midnightblue" stroke="midnightblue" points="335.7,-127.5 345.7,-124 335.7,-120.5 335.7,-127.5"/>
</g>
</g>
</svg>
