<?xml version="1.0" encoding="UTF-8" standalone="no"?>
<!DOCTYPE svg PUBLIC "-//W3C//DTD SVG 1.1//EN"
 "http://www.w3.org/Graphics/SVG/1.1/DTD/svg11.dtd">
<!-- Generated by graphviz version 3.0.0 (0)
 -->
<!-- Title: src/map.cpp Pages: 1 -->
<svg width="527pt" height="140pt"
 viewBox="0.00 0.00 527.00 140.00" xmlns="http://www.w3.org/2000/svg" xmlns:xlink="http://www.w3.org/1999/xlink">
<g id="graph0" class="graph" transform="scale(1 1) rotate(0) translate(4 136)">
<title>src/map.cpp</title>
<polygon fill="white" stroke="transparent" points="-4,4 -4,-136 523,-136 523,4 -4,4"/>
<!-- Node1 -->
<g id="node1" class="node">
<title>Node1</title>
<g id="a_node1"><a xlink:title=" ">
<polygon fill="#bfbfbf" stroke="black" points="141.5,-112.5 141.5,-131.5 212.5,-131.5 212.5,-112.5 141.5,-112.5"/>
<text text-anchor="middle" x="177" y="-119.5" font-family="Helvetica,sans-Serif" font-size="10.00">src/map.cpp</text>
</a>
</g>
</g>
<!-- Node2 -->
<g id="node2" class="node">
<title>Node2</title>
<g id="a_node2"><a xlink:title=" ">
<polygon fill="white" stroke="#bfbfbf" points="0,-56.5 0,-75.5 50,-75.5 50,-56.5 0,-56.5"/>
<text text-anchor="middle" x="25" y="-63.5" font-family="Helvetica,sans-Serif" font-size="10.00">fstream</text>
</a>
</g>
</g>
<!-- Node1&#45;&gt;Node2 -->
<g id="edge1" class="edge">
<title>Node1&#45;&gt;Node2</title>
<path fill="none" stroke="midnightblue" d="M152.92,-112.44C127.46,-103.4 87.11,-89.06 58.54,-78.92"/>
<polygon fill="midnightblue" stroke="midnightblue" points="59.57,-75.57 48.97,-75.52 57.22,-82.16 59.57,-75.57"/>
</g>
<!-- Node3 -->
<g id="node3" class="node">
<title>Node3</title>
<g id="a_node3"><a xlink:title=" ">
<polygon fill="white" stroke="#bfbfbf" points="68,-56.5 68,-75.5 122,-75.5 122,-56.5 68,-56.5"/>
<text text-anchor="middle" x="95" y="-63.5" font-family="Helvetica,sans-Serif" font-size="10.00">iostream</text>
</a>
</g>
</g>
<!-- Node1&#45;&gt;Node3 -->
<g id="edge2" class="edge">
<title>Node1&#45;&gt;Node3</title>
<path fill="none" stroke="midnightblue" d="M163.83,-112.32C151.15,-103.98 131.77,-91.21 116.79,-81.35"/>
<polygon fill="midnightblue" stroke="midnightblue" points="118.42,-78.23 108.14,-75.65 114.57,-84.08 118.42,-78.23"/>
</g>
<!-- Node4 -->
<g id="node4" class="node">
<title>Node4</title>
<g id="a_node4"><a xlink:title=" ">
<polygon fill="white" stroke="#bfbfbf" points="120.5,-0.5 120.5,-19.5 179.5,-19.5 179.5,-0.5 120.5,-0.5"/>
<text text-anchor="middle" x="150" y="-7.5" font-family="Helvetica,sans-Serif" font-size="10.00">ncurses.h</text>
</a>
</g>
</g>
<!-- Node1&#45;&gt;Node4 -->
<g id="edge3" class="edge">
<title>Node1&#45;&gt;Node4</title>
<path fill="none" stroke="midnightblue" d="M174.88,-112.37C170.52,-94.62 160.47,-53.67 154.56,-29.6"/>
<polygon fill="midnightblue" stroke="midnightblue" points="157.89,-28.47 152.11,-19.59 151.09,-30.14 157.89,-28.47"/>
</g>
<!-- Node5 -->
<g id="node5" class="node">
<title>Node5</title>
<g id="a_node5"><a xlink:title=" ">
<polygon fill="white" stroke="#bfbfbf" points="178,-56.5 178,-75.5 230,-75.5 230,-56.5 178,-56.5"/>
<text text-anchor="middle" x="204" y="-63.5" font-family="Helvetica,sans-Serif" font-size="10.00">sstream</text>
</a>
</g>
</g>
<!-- Node1&#45;&gt;Node5 -->
<g id="edge4" class="edge">
<title>Node1&#45;&gt;Node5</title>
<path fill="none" stroke="midnightblue" d="M181.46,-112.08C185.15,-104.69 190.52,-93.95 195.09,-84.81"/>
<polygon fill="midnightblue" stroke="midnightblue" points="198.28,-86.26 199.62,-75.75 192.02,-83.13 198.28,-86.26"/>
</g>
<!-- Node6 -->
<g id="node6" class="node">
<title>Node6</title>
<g id="a_node6"><a xlink:title=" ">
<polygon fill="white" stroke="#bfbfbf" points="248.5,-56.5 248.5,-75.5 283.5,-75.5 283.5,-56.5 248.5,-56.5"/>
<text text-anchor="middle" x="266" y="-63.5" font-family="Helvetica,sans-Serif" font-size="10.00">map</text>
</a>
</g>
</g>
<!-- Node1&#45;&gt;Node6 -->
<g id="edge5" class="edge">
<title>Node1&#45;&gt;Node6</title>
<path fill="none" stroke="midnightblue" d="M191.3,-112.32C205.18,-103.9 226.49,-90.97 242.8,-81.07"/>
<polygon fill="midnightblue" stroke="midnightblue" points="245,-83.83 251.74,-75.65 241.37,-77.85 245,-83.83"/>
</g>
<!-- Node7 -->
<g id="node7" class="node">
<title>Node7</title>
<g id="a_node7"><a xlink:href="map_8h.html" target="_top" xlink:title=" ">
<polygon fill="white" stroke="black" points="302,-56.5 302,-75.5 346,-75.5 346,-56.5 302,-56.5"/>
<text text-anchor="middle" x="324" y="-63.5" font-family="Helvetica,sans-Serif" font-size="10.00">map.h</text>
</a>
</g>
</g>
<!-- Node1&#45;&gt;Node7 -->
<g id="edge6" class="edge">
<title>Node1&#45;&gt;Node7</title>
<path fill="none" stroke="midnightblue" d="M200.29,-112.44C225.1,-103.33 264.51,-88.85 292.17,-78.69"/>
<polygon fill="midnightblue" stroke="midnightblue" points="293.6,-81.9 301.78,-75.16 291.19,-75.33 293.6,-81.9"/>
</g>
<!-- Node7&#45;&gt;Node4 -->
<g id="edge7" class="edge">
<title>Node7&#45;&gt;Node4</title>
<path fill="none" stroke="midnightblue" d="M301.96,-58.16C273.16,-49.22 222.3,-33.44 187.41,-22.61"/>
<polygon fill="midnightblue" stroke="midnightblue" points="188.17,-19.18 177.59,-19.56 186.1,-25.87 188.17,-19.18"/>
</g>
<!-- Node8 -->
<g id="node8" class="node">
<title>Node8</title>
<g id="a_node8"><a xlink:title=" ">
<polygon fill="white" stroke="#bfbfbf" points="197.5,-0.5 197.5,-19.5 256.5,-19.5 256.5,-0.5 197.5,-0.5"/>
<text text-anchor="middle" x="227" y="-7.5" font-family="Helvetica,sans-Serif" font-size="10.00">functional</text>
</a>
</g>
</g>
<!-- Node7&#45;&gt;Node8 -->
<g id="edge8" class="edge">
<title>Node7&#45;&gt;Node8</title>
<path fill="none" stroke="midnightblue" d="M308.42,-56.32C293,-47.74 269.19,-34.49 251.29,-24.52"/>
<polygon fill="midnightblue" stroke="midnightblue" points="252.99,-21.46 242.55,-19.65 249.58,-27.58 252.99,-21.46"/>
</g>
<!-- Node9 -->
<g id="node9" class="node">
<title>Node9</title>
<g id="a_node9"><a xlink:title=" ">
<polygon fill="white" stroke="#bfbfbf" points="275,-0.5 275,-19.5 327,-19.5 327,-0.5 275,-0.5"/>
<text text-anchor="middle" x="301" y="-7.5" font-family="Helvetica,sans-Serif" font-size="10.00">memory</text>
</a>
</g>
</g>
<!-- Node7&#45;&gt;Node9 -->
<g id="edge9" class="edge">
<title>Node7&#45;&gt;Node9</title>
<path fill="none" stroke="midnightblue" d="M320.2,-56.08C317.09,-48.77 312.58,-38.18 308.71,-29.1"/>
<polygon fill="midnightblue" stroke="midnightblue" points="311.87,-27.58 304.73,-19.75 305.43,-30.32 311.87,-27.58"/>
</g>
<!-- Node10 -->
<g id="node10" class="node">
<title>Node10</title>
<g id="a_node10"><a xlink:title=" ">
<polygon fill="white" stroke="#bfbfbf" points="345,-0.5 345,-19.5 397,-19.5 397,-0.5 345,-0.5"/>
<text text-anchor="middle" x="371" y="-7.5" font-family="Helvetica,sans-Serif" font-size="10.00">ostream</text>
</a>
</g>
</g>
<!-- Node7&#45;&gt;Node10 -->
<g id="edge10" class="edge">
<title>Node7&#45;&gt;Node10</title>
<path fill="none" stroke="midnightblue" d="M331.76,-56.08C338.54,-48.3 348.54,-36.8 356.76,-27.37"/>
<polygon fill="midnightblue" stroke="midnightblue" points="359.46,-29.59 363.38,-19.75 354.18,-25 359.46,-29.59"/>
</g>
<!-- Node11 -->
<g id="node11" class="node">
<title>Node11</title>
<g id="a_node11"><a xlink:title=" ">
<polygon fill="white" stroke="#bfbfbf" points="415.5,-0.5 415.5,-19.5 456.5,-19.5 456.5,-0.5 415.5,-0.5"/>
<text text-anchor="middle" x="436" y="-7.5" font-family="Helvetica,sans-Serif" font-size="10.00">string</text>
</a>
</g>
</g>
<!-- Node7&#45;&gt;Node11 -->
<g id="edge11" class="edge">
<title>Node7&#45;&gt;Node11</title>
<path fill="none" stroke="midnightblue" d="M341.99,-56.32C360.04,-47.62 388.05,-34.12 408.8,-24.11"/>
<polygon fill="midnightblue" stroke="midnightblue" points="410.56,-27.15 418.05,-19.65 407.52,-20.84 410.56,-27.15"/>
</g>
<!-- Node12 -->
<g id="node12" class="node">
<title>Node12</title>
<g id="a_node12"><a xlink:title=" ">
<polygon fill="white" stroke="#bfbfbf" points="475,-0.5 475,-19.5 519,-19.5 519,-0.5 475,-0.5"/>
<text text-anchor="middle" x="497" y="-7.5" font-family="Helvetica,sans-Serif" font-size="10.00">vector</text>
</a>
</g>
</g>
<!-- Node7&#45;&gt;Node12 -->
<g id="edge12" class="edge">
<title>Node7&#45;&gt;Node12</title>
<path fill="none" stroke="midnightblue" d="M346.26,-58.05C376.5,-48.61 430.72,-31.69 465.22,-20.92"/>
<polygon fill="midnightblue" stroke="midnightblue" points="466.32,-24.24 474.82,-17.92 464.23,-17.56 466.32,-24.24"/>
</g>
</g>
</svg>
