<?xml version="1.0" encoding="UTF-8" standalone="no"?>
<!DOCTYPE svg PUBLIC "-//W3C//DTD SVG 1.1//EN"
 "http://www.w3.org/Graphics/SVG/1.1/DTD/svg11.dtd">
<!-- Generated by graphviz version 3.0.0 (0)
 -->
<!-- Title: create_menu Pages: 1 -->
<svg width="326pt" height="66pt"
 viewBox="0.00 0.00 326.00 66.00" xmlns="http://www.w3.org/2000/svg" xmlns:xlink="http://www.w3.org/1999/xlink">
<g id="graph0" class="graph" transform="scale(1 1) rotate(0) translate(4 62)">
<title>create_menu</title>
<polygon fill="white" stroke="transparent" points="-4,4 -4,-62 322,-62 322,4 -4,4"/>
<!-- Node1 -->
<g id="node1" class="node">
<title>Node1</title>
<g id="a_node1"><a xlink:title=" ">
<polygon fill="#bfbfbf" stroke="black" points="0,-19.5 0,-38.5 73,-38.5 73,-19.5 0,-19.5"/>
<text text-anchor="middle" x="36.5" y="-26.5" font-family="Helvetica,sans-Serif" font-size="10.00">create_menu</text>
</a>
</g>
</g>
<!-- Node2 -->
<g id="node2" class="node">
<title>Node2</title>
<g id="a_node2"><a xlink:href="classMenuBar.html#a01078b55d58fbea2985cdf1d556c4554" target="_top" xlink:title="add Menu item to itself, stores menu items in unique pointers">
<polygon fill="white" stroke="black" points="116.5,-38.5 116.5,-57.5 193.5,-57.5 193.5,-38.5 116.5,-38.5"/>
<text text-anchor="middle" x="155" y="-45.5" font-family="Helvetica,sans-Serif" font-size="10.00">MenuBar::add</text>
</a>
</g>
</g>
<!-- Node1&#45;&gt;Node2 -->
<g id="edge1" class="edge">
<title>Node1&#45;&gt;Node2</title>
<path fill="none" stroke="midnightblue" d="M73.09,-34.8C83.54,-36.51 95.14,-38.4 106.22,-40.21"/>
<polygon fill="midnightblue" stroke="midnightblue" points="105.77,-43.68 116.21,-41.84 106.9,-36.77 105.77,-43.68"/>
</g>
<!-- Node4 -->
<g id="node4" class="node">
<title>Node4</title>
<g id="a_node4"><a xlink:href="classMenu.html#a3b81d82a4ad8ce20f8dd84bfd45a3e6b" target="_top" xlink:title="adds option to a vector of options">
<polygon fill="white" stroke="black" points="109,-0.5 109,-19.5 201,-19.5 201,-0.5 109,-0.5"/>
<text text-anchor="middle" x="155" y="-7.5" font-family="Helvetica,sans-Serif" font-size="10.00">Menu::AddOption</text>
</a>
</g>
</g>
<!-- Node1&#45;&gt;Node4 -->
<g id="edge3" class="edge">
<title>Node1&#45;&gt;Node4</title>
<path fill="none" stroke="midnightblue" d="M73.09,-23.2C81.17,-21.88 89.94,-20.45 98.62,-19.03"/>
<polygon fill="midnightblue" stroke="midnightblue" points="99.42,-22.45 108.73,-17.38 98.3,-15.54 99.42,-22.45"/>
</g>
<!-- Node3 -->
<g id="node3" class="node">
<title>Node3</title>
<g id="a_node3"><a xlink:href="classMenu.html#a01394b011ff73ffd15168bbc99fd8b39" target="_top" xlink:title="Getters.">
<polygon fill="white" stroke="black" points="237,-38.5 237,-57.5 318,-57.5 318,-38.5 237,-38.5"/>
<text text-anchor="middle" x="277.5" y="-45.5" font-family="Helvetica,sans-Serif" font-size="10.00">Menu::GetText</text>
</a>
</g>
</g>
<!-- Node2&#45;&gt;Node3 -->
<g id="edge2" class="edge">
<title>Node2&#45;&gt;Node3</title>
<path fill="none" stroke="midnightblue" d="M193.8,-48C204.15,-48 215.54,-48 226.47,-48"/>
<polygon fill="midnightblue" stroke="midnightblue" points="226.76,-51.5 236.76,-48 226.76,-44.5 226.76,-51.5"/>
</g>
</g>
</svg>
